Coordinates
version=1
nRows=17
nColumns=34
inDegrees=yes

Units are S.I. units (second, meters, Newtons, ...)
If the header above contains a line with 'inDegrees', this indicates whether rotational values are in degrees (yes) or radians (no).

endheader
time	pelvis_tilt	pelvis_list	pelvis_rotation	pelvis_tx	pelvis_ty	pelvis_tz	hip_flexion_r	hip_adduction_r	hip_rotation_r	knee_angle_r	ankle_angle_r	subtalar_angle_r	mtp_angle_r	hip_flexion_l	hip_adduction_l	hip_rotation_l	knee_angle_l	ankle_angle_l	subtalar_angle_l	mtp_angle_l	lumbar_extension	lumbar_bending	lumbar_rotation	arm_flex_r	arm_add_r	arm_rot_r	elbow_flex_r	pro_sup_r	arm_flex_l	arm_add_l	arm_rot_l	elbow_flex_l	pro_sup_l
      4.50000000	     -0.88948913	      3.85821673	    -10.07964971	      2.06660790	      0.88749915	      0.31860961	     -3.39683793	      0.36241107	    -13.70676587	      0.00000000	      3.69785365	    -22.00035275	      0.00000000	     19.60155634	     -6.07874349	      0.65596757	     56.53028462	     -8.95867392	     -5.68304020	      0.00000000	     -6.49433133	     -2.52204480	      1.29322348	     -9.64311432	    -20.42896041	      8.20639334	     36.48751666	     71.76383492	    -20.56346817	     -9.55618253	    -34.97173359	     33.02318244	     79.34931019
      4.51666670	     -0.95193400	      3.89274534	    -11.11113381	      2.07365063	      0.88404656	      0.32263295	     -3.74755782	      0.46804170	    -12.81869451	      0.00000000	      2.96661460	    -22.33630073	      0.00000000	     21.95420292	     -4.42426129	      0.02370359	     56.77075018	     -6.76437180	     -6.25460328	      0.00000000	     -6.57177264	     -2.23324946	      1.96170803	    -10.05325447	    -22.48189956	      6.18356863	     38.45910189	     70.91861973	    -21.45881066	     -8.77527894	    -36.54938998	     34.90130130	     79.10944915
      4.53333330	     -1.09544098	      3.72655489	    -12.37397649	      2.07995266	      0.88107959	      0.32585294	     -4.02719610	      0.67907442	    -11.61833135	      0.00000000	      2.10584463	    -22.61649315	      0.00000000	     24.36578893	     -2.81692204	     -0.66842330	     56.36509924	     -4.83037815	     -7.45073557	      0.00000000	     -6.64814382	     -1.56369347	      2.75821902	    -10.58059270	    -24.24067022	      2.93528795	     40.79893832	     70.09301131	    -21.91558746	     -7.50323552	    -37.77858252	     36.34958736	     78.83681994
      4.55000000	     -1.03207253	      3.52017507	    -13.85282545	      2.08604614	      0.87803651	      0.32965560	     -4.59235419	      0.89334740	    -10.42179057	      0.00000000	      1.54800894	    -22.25501257	      0.00000000	     26.47982974	     -1.16213839	     -1.49280919	     55.12279908	     -3.10807684	     -8.51366540	      0.00000000	     -7.15742300	     -0.81091119	      4.42844373	    -12.04658420	    -25.31632842	     -2.83928647	     43.96861944	     69.31746908	    -21.40938428	     -6.13384703	    -38.36667181	     37.44634831	     78.55399364
      4.56666670	     -1.24605871	      3.44980956	    -15.33212844	      2.09368060	      0.87497094	      0.33598324	     -4.98731181	      1.16004464	     -9.48434528	      0.00000000	      1.83313267	    -21.13700057	      0.00000000	     28.77156658	      0.52483321	     -2.24913495	     53.02222250	     -1.87270107	     -9.42926558	      0.00000000	     -7.36052808	     -0.24124455	      5.60497916	    -13.96412958	    -26.56992045	     -8.20839326	     49.25705977	     69.36676976	    -21.57633562	     -4.62146186	    -38.38026735	     39.46003986	     78.40299837
      4.58333330	     -1.46892295	      3.45599935	    -16.74757962	      2.10335161	      0.87352423	      0.34567675	     -5.57214036	      1.49327200	     -8.70980534	      0.00000000	      2.81149114	    -19.74818859	      0.00000000	     30.74492587	      2.16351704	     -2.80142318	     49.95535629	     -1.25090956	    -10.12169912	      0.00000000	     -7.55188830	      0.32011767	      7.24957232	    -15.13113737	    -26.94981984	    -12.65428611	     52.38591023	     70.01083722	    -20.79346546	     -3.36193885	    -37.47368906	     39.91814238	     78.21836777
      4.60000000	     -1.75074527	      3.48687881	    -18.13469824	      2.11435855	      0.87205995	      0.35780215	     -6.29114052	      1.91835913	     -7.43684849	      0.00000000	      3.75640900	    -19.14793602	      0.00000000	     32.41067024	      3.53777064	     -3.22494426	     46.04490933	     -1.10356151	    -10.49170977	      0.00000000	     -7.58225351	      0.71301660	      8.49351860	    -14.38359140	    -27.52925207	    -12.86117532	     52.35303762	     70.12331497	    -20.12389265	     -2.05012014	    -36.97438338	     40.17884731	     78.19434718
      4.61666670	     -1.92139356	      3.32265967	    -19.33731974	      2.12515350	      0.87093170	      0.37012398	     -7.24370737	      2.53393075	     -6.13253918	      0.00000000	      5.64561488	    -18.52269062	      0.00000000	     33.41213617	      4.61889119	     -3.29015842	     41.36725045	     -1.33151502	    -10.50794825	      0.00000000	     -7.76534180	      1.15633950	      9.94604323	    -13.85534207	    -27.67507228	    -13.01888186	     51.70412986	     70.20990769	    -19.14055194	     -0.74273888	    -36.43027629	     40.43468532	     78.12921128
      4.63333330	     -1.78115949	      2.92449038	    -20.36067463	      2.13541478	      0.86939835	      0.38121584	     -8.53696462	      3.18136007	     -5.80345933	      0.00000000	      8.17374175	    -16.50764424	      0.00000000	     33.53215753	      5.54519174	     -2.86625773	     36.00092205	     -1.56968610	     -9.96108971	      0.00000000	     -8.26139300	      1.62026926	     11.35974137	    -13.17382311	    -27.17685238	    -13.74650004	     49.94558281	     70.34170121	    -17.72889099	      0.57948417	    -35.44932956	     40.26127205	     77.88493451
      4.65000000	     -1.73228984	      2.40907750	    -21.53570548	      2.14474749	      0.86871471	      0.39123638	     -9.63353684	      3.85551264	     -5.03277048	      0.00000000	     10.46071865	    -15.01276803	      0.00000000	     33.24758375	      6.06591945	     -2.29933234	     30.17104566	     -1.82656227	     -8.59780053	      0.00000000	     -8.61457744	      2.17491189	     12.43666273	    -12.14884001	    -26.39898517	    -14.13918574	     48.77519055	     70.44884537	    -16.42545352	      2.00185533	    -34.64919079	     39.84566657	     77.68984389
      4.66666670	     -1.87133491	      1.76417228	    -22.67567036	      2.15455538	      0.86606548	      0.40181896	    -10.58975149	      4.72072274	     -4.01040666	      0.00000000	     12.00098373	    -14.36556502	      0.00000000	     32.79197611	      6.18158242	     -1.45702091	     24.35472543	     -2.71947591	     -6.98535722	      0.00000000	     -8.74145886	      2.88676328	     13.23928445	    -11.14492993	    -25.47918822	    -14.12848502	     48.23469298	     70.47939749	    -15.27367576	      3.52515451	    -34.08736646	     39.65606446	     77.66964400
      4.68333330	     -1.30162937	      0.89761979	    -23.76790396	      2.16485371	      0.86426396	      0.41518578	    -12.47884002	      5.55804213	     -3.56606440	      0.00000000	     13.13106576	    -12.56795397	      0.00000000	     31.23133911	      6.10952922	     -0.60082774	     18.88419412	     -3.31232934	     -4.98677270	      0.00000000	     -9.67919412	      3.27708550	     13.83511422	     -9.47974027	    -24.04067862	    -14.46409603	     46.47568792	     70.52564384	    -13.75184541	      4.88287022	    -33.23616692	     38.81915871	     77.71800336
      4.70000000	     -1.01293925	      0.16723548	    -24.72710714	      2.17597312	      0.86139791	      0.43155008	    -14.20871018	      6.50460139	     -2.74980312	      0.00000000	     13.69007054	    -11.71442030	      0.00000000	     30.02816187	      5.77258758	      0.07939314	     14.43234290	     -4.89921925	     -3.27569814	      0.00000000	    -10.14802775	      3.43680999	     13.99574916	     -8.13963070	    -22.09828631	    -14.36595062	     45.87749463	     70.58819294	    -12.49633774	      5.92528550	    -32.40165025	     38.54356426	     77.89344060
      4.71666670	     -0.42011751	     -0.54592913	    -25.32561682	      2.18876393	      0.85519362	      0.44849758	    -16.13525750	      7.39265454	     -2.31636294	      0.52629800	     14.24006574	    -11.13628320	      0.00000000	     28.65532820	      5.53802897	      0.78707243	     11.39444035	     -6.26200369	     -1.89053400	      0.00000000	    -10.70175039	      3.36912915	     13.57598139	     -6.59296108	    -19.72393780	    -14.32275089	     45.02657620	     70.66705497	    -11.13110180	      6.46034329	    -30.96852038	     38.30065574	     78.27615402
      4.73333330	      0.10582729	     -0.95402511	    -25.63563352	      2.20331415	      0.84853290	      0.46484606	    -17.39609271	      8.00840378	     -2.36980494	      2.26720638	     15.12118077	    -10.49305540	      0.00000000	     27.60056836	      5.58155763	      1.64359216	      9.87595442	     -7.32788148	     -1.34937969	      0.00000000	    -11.00584165	      2.95960529	     12.68931714	     -4.90161069	    -17.17292030	    -13.98299688	     43.51845937	     70.87159473	     -9.72374551	      6.00516040	    -28.09775683	     38.11786430	     79.07007797
      4.75000000	      0.40721858	     -1.08229460	    -25.43287031	      2.21932428	      0.84124412	      0.47854576	    -17.94722563	      8.39497761	     -3.58127981	      4.98106989	     15.94566222	     -9.73149724	      0.00000000	     27.13802199	      6.06247691	      2.88618403	     10.13907507	     -8.09457550	     -1.67826336	      0.00000000	    -10.63902458	      2.59462986	     12.00628187	     -3.13023933	    -15.03049189	    -12.13194494	     40.31701835	     71.42457823	     -7.99811267	      4.49392476	    -23.23365981	     37.79938298	     80.36167690
      4.76666670	      0.84377730	     -1.02792856	    -25.20635427	      2.23413514	      0.83736606	      0.48833801	    -17.95459820	      8.18578964	     -5.16868356	      8.87029404	     16.95892809	     -8.59054563	      0.00000000	     26.75475310	      6.92647295	      3.75464829	     11.66736918	     -8.65895365	     -2.68859454	      0.00000000	    -10.48635911	      2.09502862	     11.42219880	     -0.99261308	    -13.26764192	     -9.93693075	     37.03018435	     71.88877450	     -5.75314167	      2.94441159	    -19.28243894	     37.23766932	     81.25078440
